<svg xmlns="http://www.w3.org/2000/svg" viewBox="0 0 512 512" role="img" aria-label="Strideo icon">
  <rect width="512" height="512" rx="96" fill="#111111"/>
  <path d="M132 312c46 44 108 66 186 66 34 0 63-4 88-13v-68c-28 10-58 15-90 15-53 0-95-12-126-37-30-24-45-55-45-92 0-18 4-35 12-50h-76c-8 18-12 37-12 58 0 45 21 86 63 121Z" fill="#ffffff"/>
  <path d="M388 140c-37-34-87-51-151-51-38 0-73 7-105 22v68c31-16 66-24 104-24 41 0 74 8 98 25 25 17 38 40 40 69h74c-2-45-22-82-60-109Z" fill="#00d084"/>
</svg>
